<svg xmlns="http://www.w3.org/2000/svg" xmlns:xlink="http://www.w3.org/1999/xlink" width="222" height="94" viewBox="0 0 222 94">
    <defs>
        <path id="a" d="M46.667 93.333C20.893 93.333 0 72.44 0 46.667 0 20.893 20.893 0 46.667 0 72.44 0 93.333 20.893 93.333 46.667c0 25.773-20.893 46.666-46.666 46.666zM33.5 59.773a2.307 2.307 0 0 0 1.327-4.195l-12.25-8.61 12.296-9.081a2.307 2.307 0 1 0-2.74-3.709L17.261 45.162a2.303 2.303 0 0 0 .043 3.74l14.873 10.452c.387.273.85.419 1.324.418zm26.687 0c.473 0 .936-.146 1.323-.42L76.384 48.92a2.303 2.303 0 0 0 .043-3.74L61.554 34.178a2.307 2.307 0 1 0-2.74 3.709l12.297 9.081-12.25 8.61a2.307 2.307 0 0 0 1.327 4.194zm-18.703 8.644c1.04 0 1.95-.697 2.222-1.7l10.61-38.603a2.307 2.307 0 1 0-4.45-1.221L39.26 65.5a2.303 2.303 0 0 0 2.225 2.917z"/>
    </defs>
    <g fill="none" fill-rule="evenodd">
        <use fill="#FFF" xlink:href="#a"/>
        <g fill="#FFF" transform="translate(102.667 7.667)">
            <path d="M27.36 32.356c0 2.73-.911 4.769-2.734 6.117-.877.64-1.78 1.137-2.708 1.491-.929.354-1.831.531-2.709.531H8.173c-.878 0-1.78-.177-2.709-.53a11.618 11.618 0 0 1-2.708-1.492A6.788 6.788 0 0 1 .73 35.97c-.472-.994-.708-2.199-.708-3.614V8.342c0-1.348.236-2.537.708-3.565a6.288 6.288 0 0 1 2.026-2.502h-.051A15.038 15.038 0 0 1 5.439.859C6.384.49 7.295.303 8.173.303h11.036c.878 0 1.789.186 2.734.556.945.371 1.856.843 2.734 1.416h-.05a6.288 6.288 0 0 1 2.024 2.502c.473 1.028.709 2.217.709 3.565v3.488c0 1.618-1.013 2.427-3.038 2.427-1.991 0-2.987-.81-2.987-2.427V8.797c0-.843-.253-1.618-.759-2.326S19.192 5.41 17.943 5.41H9.438c-1.249 0-2.126.354-2.632 1.062a3.911 3.911 0 0 0-.76 2.326V31.95c0 .876.253 1.668.76 2.376.506.708 1.383 1.062 2.632 1.062h8.505c1.25 0 2.127-.354 2.633-1.062.506-.708.76-1.5.76-2.376V29.02c0-1.584.995-2.376 2.986-2.376 2.025 0 3.038.792 3.038 2.376v3.337zM50.084 10.01c.877 0 1.78.185 2.708.556.928.37 1.831.843 2.709 1.416h-.05a6.288 6.288 0 0 1 2.024 2.502c.473 1.028.709 2.216.709 3.564v14.358c0 2.764-.911 4.803-2.734 6.117-1.789 1.281-3.577 1.921-5.366 1.921h-8.1a8.465 8.465 0 0 1-2.684-.455c-.91-.303-1.805-.792-2.683-1.466-1.822-1.28-2.734-3.32-2.734-6.117V18.048c0-1.348.237-2.536.71-3.564a6.288 6.288 0 0 1 2.024-2.502h-.05a13.61 13.61 0 0 1 2.683-1.416c.945-.37 1.856-.556 2.734-.556h8.1zm-.911 25.682c1.248 0 2.134-.354 2.657-1.061.524-.708.785-1.467.785-2.275V18.099a3.72 3.72 0 0 0-.785-2.3c-.523-.691-1.409-1.037-2.657-1.037h-6.278c-1.249 0-2.135.346-2.658 1.037a3.72 3.72 0 0 0-.785 2.3v14.257c0 .808.262 1.567.785 2.275.523.707 1.41 1.061 2.658 1.061h6.278zm33.81-20.93h-9.77c-1.384 0-2.295.405-2.734 1.214-.473.707-.709 1.533-.709 2.477v14.56c0 .876.27 1.542.81 1.997.54.455 1.435.682 2.683.682h5.215c1.215 0 1.822.792 1.822 2.376 0 .674-.143 1.239-.43 1.694-.287.455-.75.682-1.392.682h-6.126c-2.126 0-4.016-.539-5.67-1.617-1.654-1.011-2.48-2.933-2.48-5.764V17.998c0-1.382.219-2.579.657-3.59.44-1.01 1.131-1.837 2.076-2.477 1.789-1.28 3.578-1.921 5.367-1.921h10.682V2.427C82.984.809 83.912 0 85.768 0c1.856 0 2.785.809 2.785 2.427V38.32c0 1.618-.929 2.427-2.785 2.427-.709 0-1.35-.127-1.924-.38-.573-.252-.86-.817-.86-1.693V14.762zm17.46 17.594c0 .808.261 1.567.784 2.275.523.707 1.41 1.061 2.658 1.061h6.328c1.25 0 2.135-.312 2.658-.935.523-.624.785-1.34.785-2.149v-.556c0-1.584.928-2.376 2.784-2.376 1.857 0 2.785.792 2.785 2.376v.607c0 1.415-.228 2.578-.684 3.488-.455.91-1.139 1.702-2.05 2.376-1.789 1.281-3.578 1.921-5.366 1.921h-8.506c-1.788 0-3.527-.64-5.214-1.92-.81-.675-1.434-1.526-1.873-2.554-.439-1.028-.658-2.216-.658-3.564V17.998c0-2.73.843-4.752 2.53-6.067a12.079 12.079 0 0 1 2.608-1.44c.895-.355 1.764-.532 2.607-.532h8.506c.81 0 1.704.16 2.683.48.979.32 1.89.75 2.734 1.29.81.573 1.46 1.365 1.949 2.376.49 1.011.734 2.208.734 3.59v6.824c0 .776-.228 1.467-.684 2.073-.455.607-1.29.91-2.506.91H105.1c-1.215 0-1.856-.792-1.924-2.376 0-1.584.642-2.376 1.924-2.376h8.607l-.051-4.702a3.72 3.72 0 0 0-.785-2.3c-.523-.69-1.409-1.036-2.658-1.036h-6.328c-1.249 0-2.135.345-2.658 1.036a3.72 3.72 0 0 0-.784 2.3v14.308zM29.815 45.825c0-1.156.711-1.733 2.134-1.733 1.422 0 2.133.577 2.133 1.733v24.917c0 .842-.446 1.456-1.338 1.841h.037c-.386.169-.796.301-1.23.398a5.835 5.835 0 0 1-1.266.144c-.313 0-.639-.03-.976-.09a4.21 4.21 0 0 1-.958-.29 3.089 3.089 0 0 1-.832-.54 2.402 2.402 0 0 1-.597-.85L19.075 51.82l-.976.109v19.5c0 1.155-.723 1.733-2.17 1.733-1.422 0-2.133-.578-2.133-1.733v-24.88c0-.988.434-1.65 1.301-1.987a6.852 6.852 0 0 1 2.532-.47c.627 0 1.26.127 1.898.38.64.253 1.127.728 1.465 1.426l7.81 19.572 1.013-.108V45.825zm13.886 27.12a7.315 7.315 0 0 1-2.133-.307 8.343 8.343 0 0 1-1.953-.885v.036c-1.181-.746-1.772-2.119-1.772-4.117v-1.77c0-.986.175-1.847.524-2.581a4.357 4.357 0 0 1 1.465-1.752h-.036a7.025 7.025 0 0 1 1.916-.92 6.721 6.721 0 0 1 1.953-.307h7.992v-3.359c0-.602-.187-1.15-.56-1.643-.374-.493-1.007-.74-1.9-.74h-4.23c-.916 0-1.549.223-1.899.668-.35.445-.524.969-.524 1.57v.29c0 1.252-.675 1.878-2.025 1.878-1.35 0-2.025-.626-2.025-1.878v-.325c0-.987.175-1.818.524-2.492.35-.674.826-1.24 1.429-1.697h-.036a10.51 10.51 0 0 1 1.97-1.011c.687-.265 1.344-.397 1.971-.397h5.497c.602 0 1.247.132 1.934.397a9.537 9.537 0 0 1 1.935 1.01h-.036a4.491 4.491 0 0 1 1.446 1.788c.338.735.507 1.583.507 2.546v14.48c0 1.156-.663 1.734-1.99 1.734-.264 0-.512-.012-.74-.036a1.481 1.481 0 0 1-.615-.199 1.171 1.171 0 0 1-.434-.47c-.109-.204-.163-.475-.163-.812l-.036-7.908h-7.305c-.53 0-.94.06-1.23.18-.289.121-.518.314-.686.578-.193.41-.332.729-.416.957a2.232 2.232 0 0 0-.127.777v1.408c0 .626.187 1.101.56 1.427.374.325 1.02.487 1.935.487h4.05c.892 0 1.338.566 1.338 1.697 0 .482-.108.885-.325 1.21-.217.325-.554.487-1.013.487h-4.737zM64.133 54.6v13.144c0 .626.132 1.108.397 1.445.266.337.832.505 1.7.505h.94c.94 0 1.386.554 1.338 1.662 0 1.131-.446 1.697-1.338 1.697h-1.193a7.443 7.443 0 0 1-2.17-.307 8.343 8.343 0 0 1-1.953-.885v.036c-1.18-.77-1.771-2.142-1.771-4.116V54.6h-1.41c-.869 0-1.327-.566-1.375-1.697 0-1.132.458-1.697 1.374-1.697h1.41v-3.864c0-1.156.688-1.734 2.062-1.734 1.326 0 1.989.578 1.989 1.734v3.864h3.001c.94 0 1.386.565 1.338 1.697 0 1.131-.446 1.697-1.338 1.697h-3.001zm10.703 16.828c0 1.155-.662 1.733-1.988 1.733-1.35 0-2.025-.578-2.025-1.733V52.794c0-1.155.675-1.733 2.025-1.733 1.326 0 1.988.578 1.988 1.733v18.634zm.76-24.917c0 .77-.265 1.42-.796 1.95-.53.53-1.181.795-1.952.795a2.717 2.717 0 0 1-1.971-.795c-.543-.53-.814-1.18-.814-1.95 0-.794.271-1.456.814-1.986.542-.53 1.2-.794 1.97-.794.772 0 1.423.264 1.953.794s.796 1.192.796 1.986zm14.935 4.695c.626 0 1.271.132 1.934.397s1.308.602 1.935 1.01h-.036a4.491 4.491 0 0 1 1.446 1.788c.338.735.506 1.583.506 2.546v10.256c0 1.974-.65 3.43-1.952 4.37-1.278.914-2.556 1.371-3.833 1.371h-5.786a6.046 6.046 0 0 1-1.917-.325c-.65-.216-1.29-.565-1.916-1.047-1.302-.915-1.953-2.371-1.953-4.37V56.948c0-.963.169-1.811.506-2.546.338-.734.82-1.33 1.447-1.787h-.037a9.722 9.722 0 0 1 1.917-1.011c.675-.265 1.326-.397 1.953-.397h5.786zM89.88 69.55c.892 0 1.525-.253 1.898-.758.374-.506.56-1.048.56-1.625V56.983c0-.602-.186-1.15-.56-1.643-.373-.493-1.006-.74-1.898-.74h-4.484c-.892 0-1.525.247-1.899.74a2.658 2.658 0 0 0-.56 1.643v10.184c0 .577.186 1.12.56 1.625.374.505 1.007.758 1.899.758h4.484zm14.067 1.878c0 1.155-.663 1.733-1.99 1.733-1.325 0-1.988-.578-1.988-1.733V56.91c0-.987.156-1.842.47-2.564a4.055 4.055 0 0 1 1.483-1.77c1.277-.914 2.555-1.371 3.833-1.371h5.822c1.23 0 2.507.457 3.833 1.372 1.302.915 1.953 2.359 1.953 4.333v14.517c0 1.155-.663 1.733-1.99 1.733-1.325 0-1.988-.578-1.988-1.733V57.236c0-.626-.193-1.228-.579-1.805l.036.036c-.313-.578-.952-.867-1.916-.867h-4.52c-.989 0-1.64.289-1.953.867-.338.505-.506 1.095-.506 1.77v14.19z"/>
            <ellipse cx="3.435" cy="68.431" rx="3.074" ry="3.069"/>
            <ellipse cx="3.435" cy="52.903" rx="3.074" ry="3.069"/>
        </g>
    </g>
</svg>
